# xmcd CD database file
#
# Track frame offsets:
#	150
#	36676
#	66396
#	110767
#	143141
#
# Disc length: 2372 seconds
#
# Revision: 0
# Processed by: cddbd v1.5.2PL0 Copyright (c) Steve Scherf et al.
# Submitted via: CDex 1.51
#
DISCID=50094205
DTITLE=Peter Schilmöller 4tet - Racing Home
DYEAR=2007
DGENRE=Jazz
TTITLE0=01 - Racing Home
TTITLE1=02 - Tight Is High
TTITLE2=03 - Svenson
TTITLE3=04 - Ballad
TTITLE4=05 - Smooth Move
EXTD=YEAR: 2007
EXTT0=
EXTT1=
EXTT2=
EXTT3=
EXTT4=
PLAYORDER=
